HIERARCHY
ROOT Root
{
  OFFSET 0.0 0.0 0.0
  CHANNELS 6 Xposition Yposition Zposition Zrotation Yrotation Xrotation
  JOINT Hips
  {
    OFFSET 0.0 100.0 0.0
    CHANNELS 6 Xposition Yposition Zposition Zrotation Yrotation Xrotation
    JOINT Spine1
    {
      OFFSET 5.003913 -0.037094 -0.013727
      CHANNELS 3 Zrotation Yrotation Xrotation
      JOINT Spine2
      {
        OFFSET 7.125363 -1e-06 0.0
        CHANNELS 3 Zrotation Yrotation Xrotation
        JOINT Chest
        {
          OFFSET 7.594027 1e-06 0.0
          CHANNELS 3 Zrotation Yrotation Xrotation
          JOINT Neck1
          {
            OFFSET 26.313086 -0.460272 -0.181672
            CHANNELS 3 Zrotation Yrotation Xrotation
            JOINT Neck2
            {
              OFFSET 8.045911 0.0 0.0
              CHANNELS 3 Zrotation Yrotation Xrotation
              JOINT Head
              {
                OFFSET 6.432774 0.0 0.0
                CHANNELS 3 Zrotation Yrotation Xrotation
                JOINT HeadEnd
                {
                  OFFSET 16.169773 0.06451 0.00362
                  CHANNELS 3 Zrotation Yrotation Xrotation
                }
                JOINT Jaw
                {
                  OFFSET 0.108741 3.12938 0.002639
                  CHANNELS 3 Zrotation Yrotation Xrotation
                }
                JOINT LeftEye
                {
                  OFFSET 4.45173 8.166359 3.206392
                  CHANNELS 3 Zrotation Yrotation Xrotation
                }
                JOINT RightEye
                {
                  OFFSET 4.436895 8.135758 -3.222429
                  CHANNELS 3 Zrotation Yrotation Xrotation
                }
              }
            }
          }
          JOINT LeftShoulder
          {
            OFFSET 23.218927 5.195579 1.621656
            CHANNELS 3 Zrotation Yrotation Xrotation
            JOINT LeftArm
            {
              OFFSET 15.902118 2e-06 -2e-06
              CHANNELS 3 Zrotation Yrotation Xrotation
              JOINT LeftForeArm
              {
                OFFSET 28.739307 0.0 -1e-06
                CHANNELS 3 Zrotation Yrotation Xrotation
                JOINT LeftHand
                {
                  OFFSET 27.093981 -4e-06 0.0
                  CHANNELS 3 Zrotation Yrotation Xrotation
                  JOINT LeftHandThumb1
                  {
                    OFFSET 2.276781 3.380274 0.83384
                    CHANNELS 3 Zrotation Yrotation Xrotation
                    JOINT LeftHandThumb2
                    {
                      OFFSET 4.705309 -1e-06 -1e-06
                      CHANNELS 3 Zrotation Yrotation Xrotation
                      JOINT LeftHandThumb3
                      {
                        OFFSET 2.798515 0.0 3e-06
                        CHANNELS 3 Zrotation Yrotation Xrotation
                        JOINT LeftHandThumbEnd
                        {
                          OFFSET 3.180793 4e-06 -4e-06
                          CHANNELS 3 Zrotation Yrotation Xrotation
                        }
                      }
                    }
                  }
                  JOINT LeftHandIndex1
                  {
                    OFFSET 3.247786 2.352677 0.137192
                    CHANNELS 3 Zrotation Yrotation Xrotation
                    JOINT LeftHandIndex2
                    {
                      OFFSET 6.367095 1e-06 0.0
                      CHANNELS 3 Zrotation Yrotation Xrotation
                      JOINT LeftHandIndex3
                      {
                        OFFSET 3.662364 0.0 0.0
                        CHANNELS 3 Zrotation Yrotation Xrotation
                        JOINT LeftHandIndex4
                        {
                          OFFSET 2.329242 4e-06 -4e-06
                          CHANNELS 3 Zrotation Yrotation Xrotation
                          JOINT LeftHandIndexEnd
                          {
                            OFFSET 2.767823 1e-06 0.0
                            CHANNELS 3 Zrotation Yrotation Xrotation
                          }
                        }
                      }
                    }
                  }
                  JOINT LeftHandMiddle1
                  {
                    OFFSET 3.163612 0.945023 -0.406112
                    CHANNELS 3 Zrotation Yrotation Xrotation
                    JOINT LeftHandMiddle2
                    {
                      OFFSET 6.276789 3e-06 0.0
                      CHANNELS 3 Zrotation Yrotation Xrotation
                      JOINT LeftHandMiddle3
                      {
                        OFFSET 4.35652 -1e-06 4e-06
                        CHANNELS 3 Zrotation Yrotation Xrotation
                        JOINT LeftHandMiddle4
                        {
                          OFFSET 2.996877 0.0 8e-06
                          CHANNELS 3 Zrotation Yrotation Xrotation
                          JOINT LeftHandMiddleEnd
                          {
                            OFFSET 2.323256 3e-06 -4e-06
                            CHANNELS 3 Zrotation Yrotation Xrotation
                          }
                        }
                      }
                    }
                  }
                  JOINT LeftHandRing1
                  {
                    OFFSET 2.882606 -0.309162 0.107445
                    CHANNELS 3 Zrotation Yrotation Xrotation
                    JOINT LeftHandRing2
                    {
                      OFFSET 6.033198 0.0 4e-06
                      CHANNELS 3 Zrotation Yrotation Xrotation
                      JOINT LeftHandRing3
                      {
                        OFFSET 4.350578 3e-06 0.0
                        CHANNELS 3 Zrotation Yrotation Xrotation
                        JOINT LeftHandRing4
                        {
                          OFFSET 2.651321 2e-06 -7e-06
                          CHANNELS 3 Zrotation Yrotation Xrotation
                          JOINT LeftHandRingEnd
                          {
                            OFFSET 1.937663 1e-06 -4e-06
                            CHANNELS 3 Zrotation Yrotation Xrotation
                          }
                        }
                      }
                    }
                  }
                  JOINT LeftHandPinky1
                  {
                    OFFSET 2.865315 -1.525436 0.575687
                    CHANNELS 3 Zrotation Yrotation Xrotation
                    JOINT LeftHandPinky2
                    {
                      OFFSET 5.54936 1e-06 -8e-06
                      CHANNELS 3 Zrotation Yrotation Xrotation
                      JOINT LeftHandPinky3
                      {
                        OFFSET 3.070974 0.0 -4e-06
                        CHANNELS 3 Zrotation Yrotation Xrotation
                        JOINT LeftHandPinky4
                        {
                          OFFSET 1.549672 1e-06 0.0
                          CHANNELS 3 Zrotation Yrotation Xrotation
                          JOINT LeftHandPinkyEnd
                          {
                            OFFSET 1.952123 0.0 0.0
                            CHANNELS 3 Zrotation Yrotation Xrotation
                          }
                        }
                      }
                    }
                  }
                }
              }
            }
          }
          JOINT RightShoulder
          {
            OFFSET 23.161716 5.296122 -1.380114
            CHANNELS 3 Zrotation Yrotation Xrotation
            JOINT RightArm
            {
              OFFSET -16.027195 -2e-06 1.1e-05
              CHANNELS 3 Zrotation Yrotation Xrotation
              JOINT RightForeArm
              {
                OFFSET -28.736639 4e-06 2e-06
                CHANNELS 3 Zrotation Yrotation Xrotation
                JOINT RightHand
                {
                  OFFSET -27.133619 6e-06 0.0
                  CHANNELS 3 Zrotation Yrotation Xrotation
                  JOINT RightHandThumb1
                  {
                    OFFSET -2.274328 -3.351035 -0.83067
                    CHANNELS 3 Zrotation Yrotation Xrotation
                    JOINT RightHandThumb2
                    {
                      OFFSET -4.703594 -3e-06 2e-06
                      CHANNELS 3 Zrotation Yrotation Xrotation
                      JOINT RightHandThumb3
                      {
                        OFFSET -2.794935 -4e-06 -3e-06
                        CHANNELS 3 Zrotation Yrotation Xrotation
                        JOINT RightHandThumbEnd
                        {
                          OFFSET -3.183852 4e-06 1e-06
                          CHANNELS 3 Zrotation Yrotation Xrotation
                        }
                      }
                    }
                  }
                  JOINT RightHandIndex1
                  {
                    OFFSET -3.253496 -2.33755 -0.127667
                    CHANNELS 3 Zrotation Yrotation Xrotation
                    JOINT RightHandIndex2
                    {
                      OFFSET -6.344434 0.0 0.0
                      CHANNELS 3 Zrotation Yrotation Xrotation
                      JOINT RightHandIndex3
                      {
                        OFFSET -3.654871 0.0 -8e-06
                        CHANNELS 3 Zrotation Yrotation Xrotation
                        JOINT RightHandIndex4
                        {
                          OFFSET -2.327586 -1e-06 0.0
                          CHANNELS 3 Zrotation Yrotation Xrotation
                          JOINT RightHandIndexEnd
                          {
                            OFFSET -2.770001 3e-06 8e-06
                            CHANNELS 3 Zrotation Yrotation Xrotation
                          }
                        }
                      }
                    }
                  }
                  JOINT RightHandMiddle1
                  {
                    OFFSET -3.168223 -0.944764 0.411762
                    CHANNELS 3 Zrotation Yrotation Xrotation
                    JOINT RightHandMiddle2
                    {
                      OFFSET -6.266691 -1e-06 -4e-06
                      CHANNELS 3 Zrotation Yrotation Xrotation
                      JOINT RightHandMiddle3
                      {
                        OFFSET -4.348901 0.0 0.0
                        CHANNELS 3 Zrotation Yrotation Xrotation
                        JOINT RightHandMiddle4
                        {
                          OFFSET -3.00024 2e-06 -4e-06
                          CHANNELS 3 Zrotation Yrotation Xrotation
                          JOINT RightHandMiddleEnd
                          {
                            OFFSET -2.321477 -4e-06 -4e-06
                            CHANNELS 3 Zrotation Yrotation Xrotation
                          }
                        }
                      }
                    }
                  }
                  JOINT RightHandRing1
                  {
                    OFFSET -2.885654 0.293261 -0.119232
                    CHANNELS 3 Zrotation Yrotation Xrotation
                    JOINT RightHandRing2
                    {
                      OFFSET -6.032835 -1e-06 -4e-06
                      CHANNELS 3 Zrotation Yrotation Xrotation
                      JOINT RightHandRing3
                      {
                        OFFSET -4.33881 0.0 -4e-06
                        CHANNELS 3 Zrotation Yrotation Xrotation
                        JOINT RightHandRing4
                        {
                          OFFSET -2.654903 -4e-06 -4e-06
                          CHANNELS 3 Zrotation Yrotation Xrotation
                          JOINT RightHandRingEnd
                          {
                            OFFSET -1.935122 0.0 4e-06
                            CHANNELS 3 Zrotation Yrotation Xrotation
                          }
                        }
                      }
                    }
                  }
                  JOINT RightHandPinky1
                  {
                    OFFSET -2.866241 1.503904 -0.60527
                    CHANNELS 3 Zrotation Yrotation Xrotation
                    JOINT RightHandPinky2
                    {
                      OFFSET -5.553177 -2e-06 0.0
                      CHANNELS 3 Zrotation Yrotation Xrotation
                      JOINT RightHandPinky3
                      {
                        OFFSET -3.062664 -1e-06 -4e-06
                        CHANNELS 3 Zrotation Yrotation Xrotation
                        JOINT RightHandPinky4
                        {
                          OFFSET -1.546529 2e-06 4e-06
                          CHANNELS 3 Zrotation Yrotation Xrotation
                          JOINT RightHandPinkyEnd
                          {
                            OFFSET -1.952341 0.0 -4e-06
                            CHANNELS 3 Zrotation Yrotation Xrotation
                          }
                        }
                      }
                    }
                  }
                }
              }
            }
          }
        }
      }
    }
    JOINT LeftLeg
    {
      OFFSET -8.443107 2.567604 10.043214
      CHANNELS 3 Zrotation Yrotation Xrotation
      JOINT LeftShin
      {
        OFFSET 43.229198 1e-06 -1e-06
        CHANNELS 3 Zrotation Yrotation Xrotation
        JOINT LeftFoot
        {
          OFFSET 42.298611 1e-06 1e-06
          CHANNELS 3 Zrotation Yrotation Xrotation
          JOINT LeftToeBase
          {
            OFFSET 14.165858 1e-06 0.0
            CHANNELS 3 Zrotation Yrotation Xrotation
            JOINT LeftToeEnd
            {
              OFFSET 6.7141 -0.234461 0.0
              CHANNELS 3 Zrotation Yrotation Xrotation
            }
          }
        }
      }
    }
    JOINT RightLeg
    {
      OFFSET -8.303923 2.592729 -10.047278
      CHANNELS 3 Zrotation Yrotation Xrotation
      JOINT RightShin
      {
        OFFSET -43.369682 0.0 1e-06
        CHANNELS 3 Zrotation Yrotation Xrotation
        JOINT RightFoot
        {
          OFFSET -42.260784 4e-06 2e-06
          CHANNELS 3 Zrotation Yrotation Xrotation
          JOINT RightToeBase
          {
            OFFSET -14.222245 -2e-06 -1e-06
            CHANNELS 3 Zrotation Yrotation Xrotation
            JOINT RightToeEnd
            {
              OFFSET -6.660062 0.232574 -2e-06
              CHANNELS 3 Zrotation Yrotation Xrotation
            }
          }
        }
      }
    }
  }
}
MOTION
Frames: 4
Frame Time: 0.03333333333333333
0.0 0.0 0.0 0.0 -0.0 0.0 -0.033209 99.945816 5.896721 90.690559 -2.435966 90.003525 -5.785795 0.548214 -0.019931 -12.69764 -0.480164 0.152051 20.612322 -1.721674 -1.87254 13.571577 1.577314 2.232605 -2.529455 -0.674023 0.229825 -30.602646 -0.120085 -0.993005 6e-06 0.0 -0.0 -0.007135 0.0235 -0.00853 0.126416 0.086293 0.015664 0.118967 -0.042959 -0.029641 -134.334885 -72.572693 148.480774 34.829678 -48.013199 1.094612 32.936176 -0.310323 -0.119657 -0.507599 -3.262445 -4.206346 17.636627 -26.322737 52.411194 -19.466663 -14.395597 29.410385 -1e-06 -8.774821 -1e-06 16.045095 -18.215849 6.116835 -0.609776 -1.795654 -3.889327 -4.807088 -11.046811 -2.93785 5e-06 -20.976019 1e-06 -5.019969 -25.033556 -4.031876 6e-06 1e-06 -3e-06 -10.634533 -5.68697 -3.565586 10.573275 -17.922955 -3.113901 3e-06 -13.821209 2e-06 -0.501778 -31.181505 -4.027014 -11.262908 -59.582249 7.04918 -13.982712 -7.150197 -2.875041 13.77273 -8.401493 -3.218242 0.347736 -34.211555 0.771652 -0.963027 -17.733372 2.621022 0.0 -0.0 -0.0 -17.346416 -20.095217 -4.201778 21.757555 -1.638376 3.866426 1e-06 -6.338825 1e-06 -1.697588 -22.591745 -6.194005 -1e-06 -2e-06 -2e-06 39.657085 -74.374222 152.952728 33.475704 -54.172215 0.155219 32.111893 -0.152709 0.063491 -0.267353 -3.727214 -0.346496 22.18211 -20.375885 49.933308 -16.701817 -16.743526 28.47653 -3e-06 -12.690601 1e-06 16.037445 -17.615662 2.75536 -0.105919 -1.513856 -4.275878 -5.039041 -5.612871 -2.953557 6e-06 -11.020523 -3e-06 -6.111297 -15.895332 -3.840469 0.0 0.0 0.0 -10.283367 -5.680287 -4.341837 11.028292 -11.302404 -2.372633 -1.384267 -14.238583 -6.320121 -0.625436 -26.924189 -3.827604 -4.242133 -49.688457 -3.542789 -13.70852 -7.363476 -3.72094 18.141146 -14.052739 -3.242676 7e-06 -18.787266 -2e-06 -0.429711 -8.456041 2.555501 -0.0 -0.0 0.0 -15.923531 -20.094482 -5.473584 30.41921 -7.190827 1.735924 4e-06 -8.162925 -2e-06 -1.861899 -22.861464 -6.167943 1e-06 -6e-06 -0.0 179.628235 -7.105083 -15.198854 5.292238 -0.028539 0.065352 -74.786133 3.006842 -6.709436 -7.027393 1.384769 2.054253 -0.999999 0.0 0.0 -1.821541 -8.258945 -9.95098 9.546084 0.042347 -0.039527 -77.882607 -0.869441 -9.40053 -7.098802 0.877741 1.657987 -1.000002 0.0 -0.0 
0.0 0.0 0.0 0.0 -0.0 0.0 -0.036466 99.958481 5.986841 90.69249 -2.44163 89.97731 -5.82148 0.542557 -0.018426 -12.697067 -0.470979 0.197935 20.577934 -1.731573 -1.924513 13.618987 1.599806 2.257344 -2.505196 -0.679402 0.214534 -30.52706 -0.108746 -1.002316 6e-06 -0.0 0.0 -0.00852 0.023821 0.010649 0.128139 0.084654 0.035395 0.125067 -0.041017 -0.011527 -134.406708 -72.615547 148.529572 34.915909 -47.992104 0.900249 32.829773 -0.398153 -0.167237 -0.563155 -3.427741 -3.984553 17.636629 -26.322737 52.411198 -19.466652 -14.395597 29.410385 -0.0 -8.774821 -3e-06 16.07618 -18.176865 6.073161 -0.609777 -1.795652 -3.889326 -4.807089 -11.046809 -2.93785 1e-06 -20.976015 2e-06 -5.019974 -25.033556 -4.031879 6e-06 2e-06 -1e-06 -10.634533 -5.686968 -3.565587 10.573274 -17.922947 -3.113897 2e-06 -13.821206 1e-06 -0.50178 -31.181505 -4.027013 -11.327146 -59.588806 7.176539 -13.982715 -7.150197 -2.875042 13.772728 -8.40149 -3.218238 0.347727 -34.211544 0.771658 -0.963029 -17.73337 2.62102 1e-06 1e-06 -0.0 -17.34642 -20.095217 -4.20178 21.757557 -1.638374 3.866427 -0.0 -6.338823 3e-06 -1.697592 -22.591743 -6.194003 -1e-06 -3e-06 -1e-06 39.701363 -74.368698 152.90802 33.439487 -54.169941 0.005691 31.984858 -0.141219 0.058043 -0.203781 -3.828999 -0.495946 22.182121 -20.3759 49.933338 -16.701817 -16.743534 28.47654 -3e-06 -12.690605 -1e-06 16.054501 -17.624233 2.748837 -0.105918 -1.513857 -4.275882 -5.039043 -5.612873 -2.953559 5e-06 -11.020526 -1e-06 -6.111297 -15.895334 -3.840471 0.0 -1e-06 0.0 -10.28337 -5.680288 -4.34184 11.028294 -11.302406 -2.372632 -1.384268 -14.238584 -6.320122 -0.625439 -26.924194 -3.827603 -4.254351 -49.842945 -3.505306 -13.708528 -7.363477 -3.720941 18.141153 -14.052742 -3.242676 7e-06 -18.78727 -0.0 -0.429713 -8.456044 2.555504 -0.0 1e-06 0.0 -15.923539 -20.094486 -5.473588 30.419218 -7.190826 1.735925 3e-06 -8.16293 -0.0 -1.861901 -22.861469 -6.167943 0.0 -6e-06 -0.0 179.677261 -7.106577 -15.230378 5.263035 -0.017785 0.109858 -74.742973 3.022753 -6.791876 -7.056973 1.412353 2.06413 -0.999999 -1e-06 -0.0 -1.606941 -8.228478 -9.943343 9.169859 0.032922 -0.041341 -77.743523 -0.898718 -9.371567 -7.137963 0.859767 1.656819 -1.000003 0.0 -0.0 
0.0 0.0 0.0 0.0 -0.0 0.0 -0.037193 99.963806 6.057663 90.696922 -2.449043 89.950653 -5.865676 0.535708 -0.029796 -12.718847 -0.466885 0.214214 20.609556 -1.735676 -1.939356 13.669603 1.61896 2.277194 -2.530012 -0.670267 0.208573 -30.390394 -0.102277 -0.9896 5e-06 -0.0 -0.0 -0.01285 0.023208 0.012285 0.11465 0.078683 0.039247 0.11776 -0.036641 -0.012809 -134.535065 -72.658623 148.679108 35.001308 -47.905888 0.761248 32.793709 -0.456226 -0.21056 -0.716986 -3.59861 -3.90347 17.636625 -26.322718 52.411171 -19.466665 -14.395596 29.410381 -1e-06 -8.774821 -1e-06 16.10936 -18.198967 6.048538 -0.609777 -1.795654 -3.889325 -4.807088 -11.046811 -2.937851 4e-06 -20.976019 -4e-06 -5.019969 -25.033556 -4.031879 6e-06 2e-06 -3e-06 -10.634533 -5.686972 -3.565587 10.573271 -17.922951 -3.113899 4e-06 -13.821209 -1e-06 -0.501777 -31.181505 -4.027017 -11.405391 -59.599461 7.217457 -13.982712 -7.150198 -2.87504 13.772727 -8.401491 -3.218242 0.347734 -34.211559 0.771651 -0.963026 -17.733376 2.621019 -1e-06 2e-06 -0.0 -17.346416 -20.095219 -4.201778 21.757555 -1.638374 3.866427 1e-06 -6.338824 1e-06 -1.697591 -22.591742 -6.194002 -0.0 -5e-06 -1e-06 39.658115 -74.34938 152.939056 33.390446 -54.148617 -0.10947 31.882763 -0.144285 0.028992 -0.199183 -3.870792 -0.591069 22.182116 -20.375895 49.933327 -16.701815 -16.74353 28.476534 -4e-06 -12.690603 2e-06 16.084982 -17.623648 2.757481 -0.10592 -1.513857 -4.275882 -5.039041 -5.612872 -2.953558 5e-06 -11.020524 -2e-06 -6.111297 -15.89533 -3.840471 -0.0 -0.0 0.0 -10.283373 -5.680289 -4.341836 11.028296 -11.302406 -2.372635 -1.384268 -14.238582 -6.320121 -0.625438 -26.924189 -3.827601 -4.279981 -49.938854 -3.484206 -13.708524 -7.363476 -3.720939 18.141151 -14.052739 -3.242677 7e-06 -18.78727 -2e-06 -0.42971 -8.456045 2.555503 -0.0 1e-06 0.0 -15.923536 -20.094482 -5.473587 30.419218 -7.190827 1.735925 3e-06 -8.16293 -2e-06 -1.8619 -22.861469 -6.167942 -0.0 -5e-06 -0.0 179.709335 -7.119086 -15.2732 5.27363 -0.015028 0.133056 -74.731697 3.057101 -6.828853 -7.022458 1.41916 2.069923 -0.999999 0.0 -0.0 -1.486656 -8.21522 -9.926059 8.977101 0.029208 -0.039812 -77.683334 -0.936483 -9.383416 -7.097795 0.852429 1.657672 -1.000002 0.0 -0.0 
0.0 0.0 0.0 0.0 -0.0 0.0 -0.049287 99.968353 6.099009 90.696495 -2.437612 89.927406 -5.899136 0.525303 -0.040835 -12.744845 -0.465173 0.216149 20.659464 -1.736104 -1.939352 13.732408 1.626119 2.280512 -2.559585 -0.652628 0.232415 -30.288546 -0.094688 -0.960068 7e-06 0.0 0.0 -0.018938 0.021621 0.006123 0.100705 0.073134 0.035347 0.10591 -0.03433 -0.02165 -134.60701 -72.676712 148.798767 35.120285 -47.788773 0.658393 32.775604 -0.493471 -0.228981 -0.867074 -3.681534 -3.834858 17.636629 -26.322737 52.411198 -19.466658 -14.395597 29.410389 -0.0 -8.774822 -2e-06 16.126368 -18.194614 6.037702 -0.609776 -1.795653 -3.889326 -4.80709 -11.046811 -2.937853 3e-06 -20.976019 1e-06 -5.019972 -25.03356 -4.03188 7e-06 3e-06 -1e-06 -10.634533 -5.68697 -3.565587 10.573272 -17.922949 -3.113901 3e-06 -13.82121 1e-06 -0.501779 -31.181507 -4.027016 -11.439835 -59.597 7.217836 -13.982712 -7.150198 -2.875041 13.772729 -8.401491 -3.21824 0.347731 -34.211555 0.771657 -0.963029 -17.73337 2.62102 1e-06 1e-06 1e-06 -17.346416 -20.095217 -4.20178 21.757557 -1.638375 3.866428 -1e-06 -6.338825 3e-06 -1.697591 -22.591743 -6.194004 -0.0 -4e-06 -3e-06 39.607792 -74.320518 152.991669 33.349747 -54.130608 -0.116049 31.791679 -0.129926 0.016797 -0.230804 -3.922196 -0.70101 22.182121 -20.375898 49.933319 -16.701811 -16.74353 28.476532 -2e-06 -12.690601 -2e-06 16.104542 -17.60434 2.764362 -0.105921 -1.513856 -4.275883 -5.039042 -5.612871 -2.953557 5e-06 -11.020523 -2e-06 -6.111301 -15.895332 -3.840469 1e-06 0.0 -2e-06 -10.283372 -5.680288 -4.341839 11.028294 -11.302402 -2.372633 -1.38427 -14.238577 -6.32012 -0.625439 -26.924179 -3.8276 -4.308106 -49.942348 -3.461644 -13.708524 -7.363475 -3.720941 18.14115 -14.052733 -3.242675 4e-06 -18.787262 -0.0 -0.429713 -8.456039 2.555504 -1e-06 0.0 0.0 -15.923536 -20.094482 -5.473584 30.41921 -7.190823 1.735927 3e-06 -8.162929 0.0 -1.861902 -22.861467 -6.167943 -1e-06 -5e-06 -0.0 179.749191 -7.137296 -15.340795 5.293115 -0.017316 0.144618 -74.645233 3.123561 -6.846754 -6.99202 1.410562 2.069038 -0.999999 -0.0 0.0 -1.390222 -8.195995 -9.917835 8.849296 0.028142 -0.042721 -77.641342 -0.951382 -9.402756 -7.05444 0.845446 1.657537 -1.000002 0.0 0.0 
